<?xml version="1.0" encoding="UTF-8" standalone="no"?>
<!-- Generator: Adobe Illustrator 22.0.1, SVG Export Plug-In . SVG Version: 6.00 Build 0)  -->

<svg
   xmlns:dc="http://purl.org/dc/elements/1.1/"
   xmlns:cc="http://creativecommons.org/ns#"
   xmlns:rdf="http://www.w3.org/1999/02/22-rdf-syntax-ns#"
   xmlns:svg="http://www.w3.org/2000/svg"
   xmlns="http://www.w3.org/2000/svg"
   xmlns:sodipodi="http://sodipodi.sourceforge.net/DTD/sodipodi-0.dtd"
   xmlns:inkscape="http://www.inkscape.org/namespaces/inkscape"
   version="1.1"
   id="Layer_1"
   x="0px"
   y="0px"
   viewBox="0 0 95.999998 96.000002"
   xml:space="preserve"
   sodipodi:docname="icon.svg"
   width="96"
   height="96"
   inkscape:version="0.92.2 (5c3e80d, 2017-08-06)"><metadata
     id="metadata63"><rdf:RDF><cc:Work
         rdf:about=""><dc:format>image/svg+xml</dc:format><dc:type
           rdf:resource="http://purl.org/dc/dcmitype/StillImage" /><dc:title /></cc:Work></rdf:RDF></metadata><defs
     id="defs61" /><sodipodi:namedview
     pagecolor="#ffffff"
     bordercolor="#666666"
     borderopacity="1"
     objecttolerance="10"
     gridtolerance="10"
     guidetolerance="10"
     inkscape:pageopacity="0"
     inkscape:pageshadow="2"
     inkscape:window-width="1920"
     inkscape:window-height="1027"
     id="namedview59"
     showgrid="false"
     inkscape:zoom="5.3103327"
     inkscape:cx="35.159054"
     inkscape:cy="29.740994"
     inkscape:window-x="-8"
     inkscape:window-y="-8"
     inkscape:window-maximized="1"
     inkscape:current-layer="Layer_1" /><style
     type="text/css"
     id="style2">
	.st0{fill:#19191C;}
	.st1{fill:#DD6923;}
	.st2{fill:#FFFFFF;}
	.st3{fill:#1C1E1B;}
	.st4{fill:#DC5F12;}
	.st5{opacity:0.1;fill:#FFFFFF;}
	.st6{fill:none;stroke:#EF7947;stroke-width:0.5;stroke-miterlimit:10;}
	.st7{opacity:0.4;fill:url(#SVGID_1_);}
	.st8{fill:#202020;stroke:#EF7947;stroke-width:0.5;stroke-miterlimit:10;}
	.st9{fill:#A6A6A6;}
	.st10{fill:#020203;}
	.st11{fill:none;stroke:#DD6923;stroke-miterlimit:10;}
	.st12{opacity:0.3;fill:#DD6923;}
	.st13{fill:#DD6923;stroke:#DD6923;stroke-miterlimit:10;}
	.st14{opacity:0.5;fill:#FFFFFF;}
	.st15{opacity:0.3;}
	.st16{opacity:0.5;}
</style><g
     id="g56"
     transform="matrix(0.60130521,0,0,0.60228785,-37.508084,-24.189423)"><g
       id="g6"><path
         class="st1"
         d="m 142.40371,40.745974 c -43.800003,0 -79.200003,35.5 -79.200003,79.200006 0,43.7 35.5,79.2 79.200003,79.2 43.7,0 79.2,-35.5 79.2,-79.2 0,-43.700006 -35.5,-79.200006 -79.2,-79.200006 z M 86.803707,143.34598 132.90371,84.745974 l 7.6,9.700005 -38.5,48.900001 z m 76.800003,0 -19.4,-24.6 7.7,-9.8 27.1,34.4 z m 18.9,0 -30.7,-39 -30.7,39 h -15.4 l 46.1,-58.600006 46.1,58.600006 z"
         id="path4"
         inkscape:connector-curvature="0"
         style="fill:#dd6923" /></g><g
       id="g54"><g
         id="g28"><path
           class="st2"
           d="m 3.7,205.4 h 8.8 l 8.9,22.4 c 1,2.7 2.3,6.6 2.3,6.6 h 0.1 c 0,0 1.2,-3.9 2.2,-6.6 l 8.9,-22.4 h 8.8 l 3.6,45.2 h -8.2 l -1.9,-25.3 c -0.2,-3 -0.1,-7 -0.1,-7 H 37 c 0,0 -1.3,4.4 -2.4,7 l -7.3,17.5 h -7.2 l -7.3,-17.5 c -1.1,-2.6 -2.5,-7.1 -2.5,-7.1 h -0.1 c 0,0 0.1,4.1 -0.1,7.1 L 8.2,250.6 H 0 Z"
           id="path8"
           inkscape:connector-curvature="0"
           style="fill:#ffffff" /><path
           class="st2"
           d="m 69,217.4 c 9.4,0 14.4,6.8 14.4,15.4 0,1 -0.2,3.1 -0.2,3.1 H 60.8 c 0.5,5.7 4.9,8.6 9.7,8.6 5.2,0 9.4,-3.6 9.4,-3.6 l 3.1,5.8 c 0,0 -5,4.7 -13.1,4.7 -10.8,0 -17.5,-7.8 -17.5,-17 0.1,-10 6.9,-17 16.6,-17 z m 6.2,13 c -0.1,-4.4 -2.9,-6.8 -6.4,-6.8 -4.1,0 -7,2.5 -7.8,6.8 z"
           id="path10"
           inkscape:connector-curvature="0"
           style="fill:#ffffff" /><path
           class="st2"
           d="M 90.2,225.1 H 86 v -6.4 h 4.4 v -9.4 h 7.9 v 9.4 h 7.4 v 6.4 h -7.4 v 12.6 c 0,5.4 4.2,6.1 6.4,6.1 0.9,0 1.5,-0.1 1.5,-0.1 v 7.1 c 0,0 -1,0.2 -2.5,0.2 -4.5,0 -13.5,-1.3 -13.5,-12.2 z"
           id="path12"
           inkscape:connector-curvature="0"
           style="fill:#ffffff" /><path
           class="st2"
           d="m 128,230.2 h 1.1 v -0.4 c 0,-4.3 -2.7,-5.7 -6.2,-5.7 -4.7,0 -8.9,3.1 -8.9,3.1 l -3.1,-5.8 c 0,0 5,-4 12.7,-4 8.5,0 13.5,4.7 13.5,12.9 v 20.3 h -7.5 v -2.7 c 0,-1.3 0.1,-2.3 0.1,-2.3 h -0.1 c 0.1,0 -2.5,5.7 -9.9,5.7 -5.8,0 -11,-3.6 -11,-10.1 0.1,-10.3 14,-11 19.3,-11 z m -6.1,14.9 c 4.3,0 7.3,-4.6 7.3,-8.5 v -0.8 h -1.4 c -4.1,0 -10.8,0.6 -10.8,5.1 -0.1,2.1 1.5,4.2 4.9,4.2 z"
           id="path14"
           inkscape:connector-curvature="0"
           style="fill:#ffffff" /><path
           class="st2"
           d="m 145.2,243.7 c 0,0 4.5,5 11.9,5 5.5,0 9.9,-3.4 9.9,-8.8 0,-12.7 -22.8,-9.2 -22.8,-23.1 0,-5.9 5.3,-11.5 13.4,-11.5 7.3,0 11.3,4.1 11.3,4.1 l -1.5,2.4 c 0,0 -3.8,-3.8 -9.7,-3.8 -6.6,0 -10.6,4.5 -10.6,8.8 0,11.8 22.8,8.2 22.8,23.1 0,6.4 -5,11.6 -12.9,11.6 -8.8,0 -13.6,-5.5 -13.6,-5.5 z"
           id="path16"
           inkscape:connector-curvature="0"
           style="fill:#ffffff" /><path
           class="st2"
           d="m 177.6,206 h 2.7 v 37.3 c 0,4.5 2.3,5 3.8,5 0.5,0 1,-0.1 1,-0.1 v 2.5 c 0,0 -0.6,0.1 -1.1,0.1 -1.8,0 -6.2,-0.7 -6.2,-6.7 V 206 Z"
           id="path18"
           inkscape:connector-curvature="0"
           style="fill:#ffffff" /><path
           class="st2"
           d="m 191,206 h 3.2 v 4.7 H 191 Z m 0.3,12.8 h 2.7 v 31.9 h -2.7 z"
           id="path20"
           inkscape:connector-curvature="0"
           style="fill:#ffffff" /><path
           class="st2"
           d="m 216.1,218 c 8,0 11,7.2 11,7.2 h 0.1 c 0,0 -0.3,-1.1 -0.3,-2.6 V 206 h 2.7 v 44.6 H 227 v -4 c 0,-1.5 0.3,-2.4 0.3,-2.4 h -0.1 c 0,0 -2.7,7.2 -11.5,7.2 -8.5,0 -13.8,-6.8 -13.8,-16.7 -0.1,-10.1 5.8,-16.7 14.2,-16.7 z m -0.4,30.8 c 5.9,0 11.3,-4.1 11.3,-14.1 0,-7.1 -3.6,-14 -11.1,-14 -6.2,0 -11.3,5.2 -11.3,14.1 0,8.5 4.6,14 11.1,14 z"
           id="path22"
           inkscape:connector-curvature="0"
           style="fill:#ffffff" /><path
           class="st2"
           d="m 252.8,218 c 8.7,0 13,6.8 13,14.5 0,0.7 -0.1,1.7 -0.1,1.7 h -25.5 c 0,9.2 6.2,14.5 13.6,14.5 6.1,0 9.9,-4 9.9,-4 l 1.5,2.2 c 0,0 -4.5,4.4 -11.3,4.4 -9,0 -16.4,-6.5 -16.4,-16.6 -0.2,-10.7 7.2,-16.7 15.3,-16.7 z m 10.2,13.8 c -0.3,-7.8 -5,-11.3 -10.3,-11.3 -5.9,0 -11.3,3.8 -12.4,11.3 z"
           id="path24"
           inkscape:connector-curvature="0"
           style="fill:#ffffff" /><path
           class="st2"
           d="m 273.5,218.8 h 2.7 v 6.1 c 0,1.5 -0.3,2.6 -0.3,2.6 h 0.1 c 1.6,-4.9 5.2,-8.9 10.2,-8.9 1,0 1.8,0.2 1.8,0.2 v 2.7 c 0,0 -0.8,-0.1 -1.5,-0.1 -5,0 -8.1,4.2 -9.5,8.9 -0.7,2.2 -1,4.6 -1,6.7 v 13.8 h -2.7 v -32 z"
           id="path26"
           inkscape:connector-curvature="0"
           style="fill:#ffffff" /></g><g
         id="g52"><g
           id="g50"><path
             class="st1"
             d="m 3.7,205.4 h 8.8 l 8.9,22.4 c 1,2.7 2.3,6.6 2.3,6.6 h 0.1 c 0,0 1.2,-3.9 2.2,-6.6 l 8.9,-22.4 h 8.8 l 3.6,45.2 h -8.2 l -1.9,-25.3 c -0.2,-3 -0.1,-7 -0.1,-7 H 37 c 0,0 -1.3,4.4 -2.4,7 l -7.3,17.5 h -7.2 l -7.3,-17.5 c -1.1,-2.6 -2.5,-7.1 -2.5,-7.1 h -0.1 c 0,0 0.1,4.1 -0.1,7.1 L 8.2,250.6 H 0 Z"
             id="path30"
             inkscape:connector-curvature="0"
             style="fill:#dd6923" /><path
             class="st1"
             d="m 69,217.4 c 9.4,0 14.4,6.8 14.4,15.4 0,1 -0.2,3.1 -0.2,3.1 H 60.8 c 0.5,5.7 4.9,8.6 9.7,8.6 5.2,0 9.4,-3.6 9.4,-3.6 l 3.1,5.8 c 0,0 -5,4.7 -13.1,4.7 -10.8,0 -17.5,-7.8 -17.5,-17 0.1,-10 6.9,-17 16.6,-17 z m 6.2,13 c -0.1,-4.4 -2.9,-6.8 -6.4,-6.8 -4.1,0 -7,2.5 -7.8,6.8 z"
             id="path32"
             inkscape:connector-curvature="0"
             style="fill:#dd6923" /><path
             class="st1"
             d="M 90.2,225.1 H 86 v -6.4 h 4.4 v -9.4 h 7.9 v 9.4 h 7.4 v 6.4 h -7.4 v 12.6 c 0,5.4 4.2,6.1 6.4,6.1 0.9,0 1.5,-0.1 1.5,-0.1 v 7.1 c 0,0 -1,0.2 -2.5,0.2 -4.5,0 -13.5,-1.3 -13.5,-12.2 z"
             id="path34"
             inkscape:connector-curvature="0"
             style="fill:#dd6923" /><path
             class="st1"
             d="m 128,230.2 h 1.1 v -0.4 c 0,-4.3 -2.7,-5.7 -6.2,-5.7 -4.7,0 -8.9,3.1 -8.9,3.1 l -3.1,-5.8 c 0,0 5,-4 12.7,-4 8.5,0 13.5,4.7 13.5,12.9 v 20.3 h -7.5 v -2.7 c 0,-1.3 0.1,-2.3 0.1,-2.3 h -0.1 c 0.1,0 -2.5,5.7 -9.9,5.7 -5.8,0 -11,-3.6 -11,-10.1 0.1,-10.3 14,-11 19.3,-11 z m -6.1,14.9 c 4.3,0 7.3,-4.6 7.3,-8.5 v -0.8 h -1.4 c -4.1,0 -10.8,0.6 -10.8,5.1 -0.1,2.1 1.5,4.2 4.9,4.2 z"
             id="path36"
             inkscape:connector-curvature="0"
             style="fill:#dd6923" /><path
             class="st1"
             d="m 145.2,243.7 c 0,0 4.5,5 11.9,5 5.5,0 9.9,-3.4 9.9,-8.8 0,-12.7 -22.8,-9.2 -22.8,-23.1 0,-5.9 5.3,-11.5 13.4,-11.5 7.3,0 11.3,4.1 11.3,4.1 l -1.5,2.4 c 0,0 -3.8,-3.8 -9.7,-3.8 -6.6,0 -10.6,4.5 -10.6,8.8 0,11.8 22.8,8.2 22.8,23.1 0,6.4 -5,11.6 -12.9,11.6 -8.8,0 -13.6,-5.5 -13.6,-5.5 z"
             id="path38"
             inkscape:connector-curvature="0"
             style="fill:#dd6923" /><path
             class="st1"
             d="m 177.6,206 h 2.7 v 37.3 c 0,4.5 2.3,5 3.8,5 0.5,0 1,-0.1 1,-0.1 v 2.5 c 0,0 -0.6,0.1 -1.1,0.1 -1.8,0 -6.2,-0.7 -6.2,-6.7 V 206 Z"
             id="path40"
             inkscape:connector-curvature="0"
             style="fill:#dd6923" /><path
             class="st1"
             d="m 191,206 h 3.2 v 4.7 H 191 Z m 0.3,12.8 h 2.7 v 31.9 h -2.7 z"
             id="path42"
             inkscape:connector-curvature="0"
             style="fill:#dd6923" /><path
             class="st1"
             d="m 216.1,218 c 8,0 11,7.2 11,7.2 h 0.1 c 0,0 -0.3,-1.1 -0.3,-2.6 V 206 h 2.7 v 44.6 H 227 v -4 c 0,-1.5 0.3,-2.4 0.3,-2.4 h -0.1 c 0,0 -2.7,7.2 -11.5,7.2 -8.5,0 -13.8,-6.8 -13.8,-16.7 -0.1,-10.1 5.8,-16.7 14.2,-16.7 z m -0.4,30.8 c 5.9,0 11.3,-4.1 11.3,-14.1 0,-7.1 -3.6,-14 -11.1,-14 -6.2,0 -11.3,5.2 -11.3,14.1 0,8.5 4.6,14 11.1,14 z"
             id="path44"
             inkscape:connector-curvature="0"
             style="fill:#dd6923" /><path
             class="st1"
             d="m 252.8,218 c 8.7,0 13,6.8 13,14.5 0,0.7 -0.1,1.7 -0.1,1.7 h -25.5 c 0,9.2 6.2,14.5 13.6,14.5 6.1,0 9.9,-4 9.9,-4 l 1.5,2.2 c 0,0 -4.5,4.4 -11.3,4.4 -9,0 -16.4,-6.5 -16.4,-16.6 -0.2,-10.7 7.2,-16.7 15.3,-16.7 z m 10.2,13.8 c -0.3,-7.8 -5,-11.3 -10.3,-11.3 -5.9,0 -11.3,3.8 -12.4,11.3 z"
             id="path46"
             inkscape:connector-curvature="0"
             style="fill:#dd6923" /><path
             class="st1"
             d="m 273.5,218.8 h 2.7 v 6.1 c 0,1.5 -0.3,2.6 -0.3,2.6 h 0.1 c 1.6,-4.9 5.2,-8.9 10.2,-8.9 1,0 1.8,0.2 1.8,0.2 v 2.7 c 0,0 -0.8,-0.1 -1.5,-0.1 -5,0 -8.1,4.2 -9.5,8.9 -0.7,2.2 -1,4.6 -1,6.7 v 13.8 h -2.7 v -32 z"
             id="path48"
             inkscape:connector-curvature="0"
             style="fill:#dd6923" /></g></g></g></g></svg>